# xmcd
#
# Track frame offsets: 
#        150
#        12118
#        24452
#        34637
#        47871
#        57048
#        72028
#        84609
#        96028
#        106782
#        120502
#        135477
#        149023
#        166222
#        176739
#        191533
#
# Disc length: 2679 seconds
#
# Revision: 0
# Processed by: cddbd v1.5.1PL0 Copyright (c) Steve Scherf et al.
# Submitted via: ExactAudioCopy v0.95a5
#
DISCID=cc0a7510
DTITLE=Various Artist - Country Legends CD 3
DYEAR=1900
DGENRE=Country
TTITLE0=Jimmy C. Newman - Dead skunk in the middle of the road
TTITLE1=Barbara Mandrell - Midnight oil
TTITLE2=Willie Nelson - Eight more miles to Louisville
TTITLE3=Johnny paycheck - Drinkin' and drivin' (fivehundredandtwo blue
TTITLE3=s)
TTITLE4=Dave Dudley - Keep on truckin'
TTITLE5=Lucky - Back on the street again
TTITLE6=Glen Campbell - By the time I get to Phoenix
TTITLE7=Hank Snow - The Hobo's last ride
TTITLE8=Johnny Cash - Wide open road
TTITLE9=Eddie Rabbitt - Drivin' my live away
TTITLE10=Johnny Rodriguez - Desperado
TTITLE11=Eddy Raven - Rip rap road
TTITLE12=Oak Ridge Boys - Ain't no short way home
TTITLE13=Gene Simmons - Way down yonder in Baton Rouge
TTITLE14=Nev Nichols - Bull dog Mack
TTITLE15=Dennis Olson - Truck driving outlaw
EXTD=
EXTT0=
EXTT1=
EXTT2=
EXTT3=
EXTT4=
EXTT5=
EXTT6=
EXTT7=
EXTT8=
EXTT9=
EXTT10=
EXTT11=
EXTT12=
EXTT13=
EXTT14=
EXTT15=
PLAYORDER=
